<svg width="48" height="48" viewBox="0 0 48 48" fill="none" xmlns="http://www.w3.org/2000/svg">
<path d="M9.06037 6.63641H28.4719C30.6672 6.63641 32.607 7.09589 34.2912 8.01483C36.0054 8.90413 37.3438 10.1343 38.3061 11.7054C39.2686 13.2765 39.7497 15.0996 39.7497 17.1747C39.7497 19.6054 39.058 21.7101 37.6746 23.4887C36.2912 25.2376 34.4566 26.4382 32.171 27.0903L39.9302 39.3183C40.3211 39.9112 40.3964 40.4003 40.1557 40.7856C39.9452 41.171 39.4941 41.3637 38.8024 41.3637C38.4716 41.3637 38.2159 41.3043 38.0355 41.1858C37.8851 41.0376 37.7347 40.8597 37.5844 40.6522L29.2838 27.5795H19.8555C19.1081 27.5795 18.5021 26.9823 18.5021 26.2455C18.5021 25.5088 19.1081 24.9116 19.8555 24.9116H28.4719C30.156 24.9116 31.6297 24.5855 32.8928 23.9334C34.1859 23.2515 35.1935 22.3326 35.9152 21.1765C36.6671 20.0204 37.043 18.6865 37.043 17.1747C37.043 15.6332 36.6671 14.2696 35.9152 13.0839C35.1935 11.8981 34.1859 10.9792 32.8928 10.327C31.6297 9.64522 30.156 9.30432 28.4719 9.30432H9.06037C8.69947 9.30432 8.38371 9.17093 8.11304 8.90413C7.84236 8.63734 7.70703 8.32609 7.70703 7.97036C7.70703 7.585 7.84236 7.25893 8.11304 6.99214C8.38371 6.75499 8.69947 6.63641 9.06037 6.63641Z" fill="#8F8F8F"/>
</svg>
